<?xml version="1.0" encoding="utf-8"?>
<!-- Generator: Adobe Illustrator 21.1.0, SVG Export Plug-In . SVG Version: 6.00 Build 0)  -->
<svg version="1.1" id="Layer_1" xmlns="http://www.w3.org/2000/svg" xmlns:xlink="http://www.w3.org/1999/xlink" x="0px" y="0px"
	 viewBox="0 0 80 80" style="enable-background:new 0 0 80 80;" xml:space="preserve">
<style type="text/css">
	.st0{fill:#FF0032;}
	.st1{fill:#FFFFFF;}
</style>
<g>
	<circle class="st0" cx="40" cy="40" r="40"/>
	<path class="st1" d="M28,17.2c0,0,0.1-0.1,0.1-0.2c0.3-0.4,0.7-0.9,1.4-0.9h0l0.1,0c0.7,0.1,1.8,0.7,2,1.6c0.6,3.2,1.2,6.4,1.8,9.6
		l0.2,1.1c0.1,0.8,0,1.5-0.4,2C33,30.7,32.6,31,31.9,31l-0.1,0c-0.9,0-1.9-1-2-1.8c-0.6-2.8-1.1-5.5-1.6-8.4
		c-0.2-0.9-0.6-3.2-0.6-3.2L28,17.2z"/>
	<path class="st1" d="M14.6,35c0.1-0.8,0.8-1.7,1.7-1.9c2.3-0.5,4.6-0.9,6.9-1.3l1.9-0.3c0.3,0,0.5-0.1,0.8-0.1
		c0.4-0.1,0.7-0.1,1.1-0.2c0.3-0.1,0.5-0.1,0.7-0.1c1,0,1.8,0.6,1.9,1.7c0.1,0.7,0,2-2,2.3c-2.2,0.4-4.5,0.8-6.7,1.2l-4.8,0.9
		l-0.4-0.4c0,0-0.1-0.1-0.2-0.2C15.1,36.2,14.5,35.7,14.6,35z"/>
	<path class="st1" d="M62.8,36.7c-5.5,3.2-11,6.2-16.5,9.2c-1.3,0.7-2.5,1.3-3.1,2.8c-0.3,0.7-1,1.3-1.6,1.9
		c-4.2,4.3-8.5,8.5-12.7,12.7c-3.4,3.4-7.8,4-11.8,1.8c-5-2.8-6.5-9.7-2.8-14.1c2.7-3.1,5.8-5.9,8.6-8.9c1.2-1.2,2.4-2.4,3.7-3.7
		c1,1,1.9,2,2.9,3c-0.2,0.3-0.5,0.6-0.8,0.9c-3.5,3.5-6.9,6.9-10.4,10.4c-1.9,1.9-2.4,4.3-1.4,6.4c1.6,3.4,5.9,4,8.7,1.3
		c3.2-3.1,6.4-6.4,9.5-9.5c1.3-1.3,2.6-2.6,4.1-4.1c-3.2-1-5.4-3-6.7-6c1.2-0.7,2.3-1.3,3.6-2c1,1.6,1.8,3.3,3.9,3.7
		c0.1-3.2-3.5-4.8-8.2-3.6c-0.2-0.6-0.5-1.3-0.7-1.9c-0.2-0.6-0.4-1.3-0.7-1.9c5-2.8,12.5-0.6,14.1,6.7c0.2-0.1,0.4-0.1,0.5-0.2
		c5.1-2.9,10.3-5.7,15.4-8.6c3.2-1.8,3.9-5.4,1.8-8.1c-1.3-1.7-3.7-2.4-5.8-1.6c-0.6,0.2-1.1,0.5-1.6,0.8c-5.3,3-10.7,6-16,9
		c-0.4,0.2-0.8,0.4-1.2,0.6c-0.7-1.2-1.3-2.4-2-3.6c0.2-0.1,0.3-0.3,0.5-0.4c5.7-3.2,11.4-6.4,17.1-9.6c4.6-2.5,9.9-1.4,12.7,2.7
		C69.3,27.6,67.9,33.8,62.8,36.7z"/>
</g>
</svg>
