<?xml version="1.0" encoding="utf-8"?>
<!-- Generator: Adobe Illustrator 21.1.0, SVG Export Plug-In . SVG Version: 6.00 Build 0)  -->
<svg version="1.1" id="Layer_1" xmlns="http://www.w3.org/2000/svg" xmlns:xlink="http://www.w3.org/1999/xlink" x="0px" y="0px"
	 viewBox="0 0 40 36.7" style="enable-background:new 0 0 40 36.7;" xml:space="preserve">
<style type="text/css">
	.st0{fill:#707070;}
</style>
<title>fav</title>
<g id="Layer_2">
	<g id="Layer_1-2">
		<path class="st0" d="M29.1,2C34,2,38,5.9,38,10.8l0,0.2c0,6.7-6.5,12.6-16.4,21.5l-0.1,0.1L20,34l-1.6-1.4C8.5,23.6,2,17.7,2,11
			c0-2.4,0.9-4.6,2.5-6.3C6.2,3,8.4,2,10.8,2l0.1,0L11,2c2.9,0,5.6,1.3,7.5,3.5L20,7.2l1.5-1.8C23.4,3.3,26.1,2,29.1,2L29.1,2
			 M29.1,0c0,0-0.1,0-0.1,0c-3.5,0-6.7,1.6-9,4.2C17.7,1.6,14.5,0,11,0c0,0-0.1,0-0.1,0c0,0-0.1,0-0.1,0C4.8,0.1-0.1,5,0,11
			c0,7.6,6.8,13.7,17.1,23.1l2.9,2.6l2.9-2.6C33.2,24.7,40,18.6,40,11c0-0.1,0-0.1,0-0.2C39.9,4.8,35.1,0,29.1,0L29.1,0z"/>
	</g>
</g>
</svg>
