<?xml version="1.0" encoding="utf-8"?>
<!-- Generator: Adobe Illustrator 21.1.0, SVG Export Plug-In . SVG Version: 6.00 Build 0)  -->
<svg version="1.1" id="Layer_1" xmlns="http://www.w3.org/2000/svg" xmlns:xlink="http://www.w3.org/1999/xlink" x="0px" y="0px"
	 viewBox="0 0 60 60" style="enable-background:new 0 0 60 60;" xml:space="preserve">
<style type="text/css">
	.st0{fill:#FFFFFF;}
</style>
<title>gp</title>
<g id="Layer_2">
	<g id="Layer_1-2">
		<path class="st0" d="M37,30.5c0.1,3.2-0.7,6.3-2.1,9.1c-1.4,2.6-3.5,4.8-6.1,6.3c-2.8,1.5-5.9,2.3-9.1,2.3c-2.4,0-4.8-0.4-7-1.4
			c-4.3-1.8-7.8-5.2-9.6-9.6c-1.9-4.5-1.9-9.6,0-14c1.8-4.3,5.2-7.8,9.6-9.6c2.2-1,4.6-1.4,7-1.4c4.5-0.1,8.8,1.6,12.1,4.7l-4.9,4.7
			c-1.9-1.8-4.6-2.9-7.2-2.8c-2,0-3.9,0.5-5.6,1.5c-3.5,2.1-5.6,5.8-5.6,9.9c0,4,2.1,7.8,5.6,9.9c1.7,1,3.6,1.5,5.6,1.5
			c1.3,0,2.6-0.1,3.8-0.6c1-0.3,2-0.8,2.8-1.4c0.7-0.6,1.4-1.2,1.9-1.9c0.5-0.6,0.9-1.3,1.2-2.1c0.2-0.6,0.4-1.2,0.5-1.8H19.7v-6.2
			h17.1C36.9,28.4,37,29.4,37,30.5z M58.3,27.4v5.1h-5.1v5.1H48v-5.1h-5.1v-5.1H48v-5.1h5.1v5.1H58.3z"/>
	</g>
</g>
</svg>
