<?xml version="1.0" encoding="utf-8"?>
<!-- Generator: Adobe Illustrator 21.1.0, SVG Export Plug-In . SVG Version: 6.00 Build 0)  -->
<svg version="1.1" id="Layer_1" xmlns="http://www.w3.org/2000/svg" xmlns:xlink="http://www.w3.org/1999/xlink" x="0px" y="0px"
	 viewBox="0 0 60 60" style="enable-background:new 0 0 60 60;" xml:space="preserve">
<style type="text/css">
	.st0{fill:#FFFFFF;}
</style>
<title>tw</title>
<g id="Layer_2">
	<g id="Layer_1-2">
		<path class="st0" d="M56.4,13.7c-1.5,2.2-3.3,4.1-5.4,5.6c0,0.3,0,0.8,0,1.4c0,2.9-0.4,5.9-1.3,8.7c-0.9,2.9-2.2,5.8-3.9,8.3
			c-1.7,2.6-3.8,5-6.2,7c-2.6,2.1-5.5,3.8-8.6,4.9c-3.5,1.2-7.1,1.8-10.8,1.8c-5.9,0.1-11.7-1.6-16.6-4.8c0.9,0.1,1.7,0.1,2.6,0.1
			c4.9,0,9.6-1.6,13.4-4.6C15,42,11,39,9.5,34.6c0.7,0.1,1.3,0.2,2,0.2c1,0,1.9-0.1,2.8-0.4c-2.4-0.5-4.6-1.8-6.2-3.7
			c-1.6-1.9-2.5-4.4-2.5-6.9v-0.1c1.5,0.8,3.2,1.3,4.9,1.4c-1.5-1-2.7-2.3-3.5-3.9c-0.9-1.6-1.3-3.4-1.3-5.2c0-1.9,0.5-3.8,1.5-5.4
			c2.7,3.3,6.1,6.1,9.9,8c3.9,2,8.1,3.1,12.5,3.3c-0.2-0.8-0.3-1.6-0.3-2.5c0-2.9,1.1-5.6,3.2-7.6c4.2-4.2,11.1-4.2,15.3,0
			c0.1,0.1,0.1,0.2,0.2,0.2c2.4-0.5,4.7-1.3,6.8-2.6c-0.8,2.5-2.5,4.7-4.8,6C52.3,15.1,54.4,14.5,56.4,13.7z"/>
	</g>
</g>
</svg>
