<?xml version="1.0" encoding="utf-8"?>
<!-- Generator: Adobe Illustrator 21.1.0, SVG Export Plug-In . SVG Version: 6.00 Build 0)  -->
<svg version="1.1" id="Layer_1" xmlns="http://www.w3.org/2000/svg" xmlns:xlink="http://www.w3.org/1999/xlink" x="0px" y="0px"
	 viewBox="0 0 60 60" style="enable-background:new 0 0 60 60;" xml:space="preserve">
<style type="text/css">
	.st0{fill:#FFFFFF;}
</style>
<title>yt</title>
<g id="Layer_2">
	<g id="Layer_1-2">
		<path class="st0" d="M60,25c0,1.2,0,2.9,0,5s0,3.8,0,5s-0.1,2.7-0.3,4.6c-0.1,1.7-0.4,3.4-0.8,5c-0.3,1.6-1.1,3-2.3,4.1
			c-1.1,1.1-2.6,1.7-4.1,1.9c-7.5,0.7-15,1-22.5,0.9c-7.5,0.1-15-0.2-22.5-0.9c-1.6-0.2-3-0.9-4.2-1.9c-1.2-1.1-2-2.5-2.4-4.1
			c-0.3-1.7-0.6-3.3-0.7-5C0.2,37.7,0,36.2,0,35s0-2.9,0-5c0-2.1,0-3.8,0-5c0-1.2,0.1-2.7,0.3-4.6c0.2-1.7,0.4-3.3,0.8-5
			c0.3-1.6,1.1-3,2.3-4.1C4.5,10.3,6,9.6,7.5,9.4C15,8.7,22.5,8.5,30,8.6c7.5-0.1,15,0.2,22.5,0.8c1.6,0.2,3,0.9,4.2,1.9
			c1.2,1.1,2,2.5,2.4,4.1c0.3,1.6,0.6,3.3,0.7,4.9C59.9,22.2,60,23.8,60,25z M42.9,30c0-0.7-0.3-1.5-1-1.8L24.7,17.5
			c-0.6-0.5-1.5-0.5-2.2-0.1c-0.7,0.4-1.1,1.1-1.1,1.9v21.4c0,0.8,0.4,1.5,1.1,1.9c0.3,0.2,0.7,0.3,1,0.3c0.4,0,0.8-0.1,1.2-0.3
			l17.1-10.8C42.5,31.5,42.9,30.7,42.9,30L42.9,30z"/>
	</g>
</g>
</svg>
