<svg xmlns="http://www.w3.org/2000/svg" viewBox="0 0 64.78 57.38"><defs><style>.cls-1{fill:#fff;}</style></defs><title>cc-off</title><g id="Layer_2" data-name="Layer 2"><g id="Layer_1-2" data-name="Layer 1"><path id="cc_stroke.svg" data-name="cc stroke.svg" class="cls-1" d="M55.5,57.38a2,2,0,0,1-1.44-.62l-9.43-9.93H7c-3.46,0-7-3.68-7-7.3V5.72C0,2.4,2.94,0,7,0H58.9c3.63,0,5.88,2.19,5.88,5.72V39.53c0,3.59-2.2,7.3-5.88,7.3h-.25l-1.17,8.82A2,2,0,0,1,55.5,57.38ZM7,4C5.83,4,4,4.46,4,5.72V39.54C4,41,5.7,42.85,7,42.85h38.5a2,2,0,0,1,1.44.62L54.08,51l.85-6.42a2,2,0,0,1,2-1.73h2c1.07,0,1.89-1.78,1.89-3.31V5.72C60.79,4.57,60.5,4,58.9,4H7Zm.73,32.88H22.17m0,2H7.72a2,2,0,0,1,0-4H22.17a2,2,0,0,1,2.44,1.5,2,2,0,0,1-1.44,2.42,3.17,3.17,0,0,1-1,.06ZM39.11,29.4H53.56m0,2H39.11a2,2,0,1,1,0-4H53.56a2,2,0,1,1,0,4ZM28.65,36.87h4.49m0,2H28.65a2,2,0,0,1,0-4h4.49a2,2,0,1,1,0,4Zm20.92-2h2.49m0,2H54.06a2,2,0,0,1,0-4h2.49a2,2,0,1,1,0,4Zm-18.18-2H48.83m0,2H38.37a2,2,0,1,1-.09-4H48.83a2,2,0,1,1,0,4ZM27.41,29.4h4.48m0,2H27.41a2,2,0,1,1,0-4h4.48a2,2,0,1,1,0,4Zm-24.17-2H18.19m0,2H7.72a2,2,0,1,1,0-4H18.19a2,2,0,1,1,0,4Z"/></g></g></svg>