<svg xmlns="http://www.w3.org/2000/svg" viewBox="0 0 61 53.59"><defs><style>.cls-1{fill:#fff;}</style></defs><title>cc-on</title><g id="Layer_2" data-name="Layer 2"><g id="_2" data-name="2"><path class="cls-1" d="M56.22,0H4.13C1.66,0,0,2.39,0,4.86V38.8A4,4,0,0,0,4.13,43H42.76l10,10.59L54.22,43h2C58.7,43,61,41.27,61,38.8V4.86A5.08,5.08,0,0,0,56.22,0ZM36.37,27h14.5a2,2,0,0,1,0,4H36.37a2,2,0,0,1,0-4ZM4.87,27h10.5a2,2,0,0,1,0,4H4.87a2,2,0,0,1,0-4Zm14.5,11H4.87a2,2,0,0,1,0-4h14.5a2,2,0,0,1,0,4Zm3.25-9a2,2,0,0,1,2-2h4.5a2,2,0,0,1,0,4h-4.5A2,2,0,0,1,22.62,29Zm7.75,9h-4.5a2,2,0,0,1,0-4h4.5a2,2,0,0,1,0,4Zm15.75,0H35.62a2,2,0,0,1,0-4h10.5a2,2,0,0,1,0,4Zm7.75,0h-2.5a2,2,0,0,1,0-4h2.5a2,2,0,0,1,0,4Z"/></g></g></svg>