<svg xmlns="http://www.w3.org/2000/svg" viewBox="0 0 201.48 201.48"><defs><style>.cls-1{fill:#ff0032;}.cls-2{fill:#fff;}</style></defs><title>account</title><g id="Layer_2" data-name="Layer 2"><g id="Layer_1-2" data-name="Layer 1"><circle class="cls-1" cx="100.74" cy="100.74" r="100.74"/><path class="cls-2" d="M151.81,145.71a12,12,0,0,0-.14-2v-.06c-.09-.57-.19-1.15-.3-1.73l0-.23c0-.19-.06-.37-.1-.55-.07-.38-.17-.76-.25-1.15s-.2-1-.32-1.48-.28-1-.42-1.49-.22-.78-.34-1.17-.37-1.06-.57-1.58c-.13-.35-.25-.69-.39-1-.21-.52-.45-1-.69-1.55-.1-.22-.19-.45-.3-.67l-.32-.66-.08-.16-.07-.13,0,0-.06-.13c-.32-.62-.68-1.22-1-1.81l-.13-.22c-.46-.75-1-1.48-1.49-2.18a16.5,16.5,0,0,0-5.13-4.47l-.23-.12c-6.62-3.34-16.74-6.69-25.24-11.62l-.27-.14.09-.1c.29-.3.57-.61.84-.94l.14-.19c.25-.31.49-.62.72-.94l.06-.09q.38-.54.74-1.11v0q.37-.6.71-1.24h0a23.36,23.36,0,0,0,2-5.23c2.86-2.65,6-7.79,6-12.71,0-3.28-.41-4.92-2.16-4.89l-.14-9.24a18.83,18.83,0,0,0-7.38-13.89h0s0-.19,0-.2a18.49,18.49,0,0,0-4-2.15s-.09-.08-.13-.09c-.44-.16-.9-.33-1.37-.47l-.41-.12c-.4-.11-.81-.21-1.23-.31l-.55-.12c-.4-.08-.82-.15-1.24-.21l-.62-.09c-.45-.05-.91-.1-1.39-.13l-.59,0c-.68,0-1.38-.07-2.11-.07h0c-.73,0-1.43,0-2.11.07l-.59,0c-.47,0-.94.08-1.39.13l-.62.09c-.42.06-.84.13-1.24.21l-.55.11c-.42.09-.83.19-1.23.3l-.41.11q-.71.21-1.37.45l-.13,0a18.64,18.64,0,0,0-4,2.23s0,.2,0,.2h0a18.83,18.83,0,0,0-7.38,13.89l-.14,9.33c-1.74,0-2.15,1.57-2.15,4.85,0,4.91,2.17,10,5,12.68a22.87,22.87,0,0,1,1,5.2h1c.23.43.95.84,1.2,1.24l.26,0c.24.38.61.75.86,1.12,0,0,.1.06.12.09.23.32.51.64.76.94l.16.18c.28.33.57.65.86,1l.07.08-.27.14C81,114.35,70.91,117.7,64.3,121l-.23.12a16.5,16.5,0,0,0-5.13,4.47c-.53.7-1,1.43-1.49,2.18l-.13.22c-.36.6-.72,1.2-1,1.81l-.06.13,0,0-.07.13-.08.16-.32.66c-.11.22-.19.45-.3.67-.24.52-.48,1-.69,1.55-.14.34-.26.69-.39,1-.2.53-.4,1.05-.57,1.59s-.23.77-.34,1.16-.3,1-.42,1.5-.22,1-.32,1.47-.18.77-.25,1.15c0,.18-.06.37-.1.55l0,.23c-.11.58-.21,1.16-.3,1.73v.06a12,12,0,0,0-.14,2v.09c-.24,3.18,6,4.22,6,4.22a57.48,57.48,0,0,0,5.8,1.18c1.82.3,3.88.59,6.12.88a203.16,203.16,0,0,0,23.45,2.07l4.88.17c.61,0,1.26.18,1.91.19.32,0,.62.17,1,.17h1.7c1-.93,1.95-.17,2.86-.2,1.54,0,3.08-.18,4.62-.24a204.22,204.22,0,0,0,23.7-2.12c2.24-.29,4.3-.6,6.12-.9a57,57,0,0,0,5.8-1.19s6.27-1,6-4.23Z"/></g></g></svg>