<svg xmlns="http://www.w3.org/2000/svg" viewBox="0 0 76 76"><defs><style>.cls-1{fill:#ff0032;}.cls-2{fill:#fff;}</style></defs><title>bell</title><g id="Layer_2" data-name="Layer 2"><g id="Layer_1-2" data-name="Layer 1"><circle class="cls-1" cx="38" cy="38" r="38"/><path class="cls-2" d="M55.82,51.89H20.18a1.76,1.76,0,0,1-.43-3.47c3.58-.9,3.58-2.13,3.58-2.59v-8.6A14.71,14.71,0,0,1,31.91,23.6a6.41,6.41,0,0,1,12.18,0,14.71,14.71,0,0,1,8.58,13.62v8.6c0,.46,0,1.7,3.58,2.59a1.76,1.76,0,0,1-.43,3.47Zm-29.6-3.53H49.78a5.06,5.06,0,0,1-.64-2.54v-8.6A11.18,11.18,0,0,0,42,26.54a1.76,1.76,0,0,1-1.13-1.38A2.86,2.86,0,0,0,38,22.72a2.9,2.9,0,0,0-2.85,2.44A1.76,1.76,0,0,1,34,26.54a11.18,11.18,0,0,0-7.17,10.68v8.6A5.06,5.06,0,0,1,26.22,48.37Z"/><path class="cls-2" d="M38,56.81c-3.4,0-6.06-2.93-6.06-6.68a1.76,1.76,0,0,1,3.53,0c0,1.55.95,3.15,2.54,3.15s2.54-1.6,2.54-3.15a1.76,1.76,0,0,1,3.53,0C44.06,53.88,41.4,56.81,38,56.81Z"/></g></g></svg>