<svg xmlns="http://www.w3.org/2000/svg" viewBox="0 0 258 258"><defs><style>.cls-1{fill:#ff0032;}.cls-2{fill:#fff;}</style></defs><title>broken</title><g id="Layer_2" data-name="Layer 2"><g id="Layer_1-2" data-name="Layer 1"><circle class="cls-1" cx="129" cy="129" r="129"/><path class="cls-2" d="M135.44,146a2,2,0,0,0-2.12.48l-26.19,26.18a15.4,15.4,0,0,1-21.78-21.78l26.18-26.18a2,2,0,0,0-1.24-3.47L92,119.4a2,2,0,0,0-1.64.59l-18,17.95a33.69,33.69,0,0,0,47.64,47.64l18-17.95a2,2,0,0,0,.59-1.64l-1.81-18.28A2,2,0,0,0,135.44,146Z"/><path class="cls-2" d="M185.58,72.42a33.72,33.72,0,0,0-47.64,0l-18,18A2,2,0,0,0,119.4,92l1.82,18.28a2,2,0,0,0,3.47,1.24l26.18-26.19a15.4,15.4,0,0,1,21.78,21.78l-26.18,26.18a2,2,0,0,0,1.24,3.47L166,138.6h.2a2,2,0,0,0,1.44-.6l18-18A33.73,33.73,0,0,0,185.58,72.42Z"/><path class="cls-2" d="M74.58,113.78h0l22-.38a2,2,0,0,0,.53-4L76,103.24a2,2,0,0,0-2.59,1.69l-.88,6.54a2,2,0,0,0,2,2.31Z"/><path class="cls-2" d="M109.41,97.15a2,2,0,0,0,2,1.47l.27,0a2,2,0,0,0,1.77-2l.38-22a2,2,0,0,0-2.31-2.05l-6.54.88A2,2,0,0,0,103.25,76Z"/><path class="cls-2" d="M183.38,144.22l-22,.38a2,2,0,0,0-.54,4L182,154.76a2.11,2.11,0,0,0,.57.08,2,2,0,0,0,2-1.77l.88-6.54a2,2,0,0,0-.5-1.62A2,2,0,0,0,183.38,144.22Z"/><path class="cls-2" d="M148.59,160.85a2,2,0,0,0-2.23-1.45,2,2,0,0,0-1.77,2l-.38,22a2,2,0,0,0,2,2.07l.27,0,6.54-.88a2,2,0,0,0,1.69-2.59Z"/></g></g></svg>