<svg xmlns="http://www.w3.org/2000/svg" viewBox="0 0 201.48 201.48"><defs><style>.cls-1{fill:#ff0032;}.cls-2{fill:#fff;}</style></defs><title>common</title><g id="Layer_2" data-name="Layer 2"><g id="Layer_1-2" data-name="Layer 1"><circle class="cls-1" cx="100.74" cy="100.74" r="100.74"/><path class="cls-2" d="M101.44,55.76a45,45,0,0,0-21.66,84.41l-.53,18.59,21.23-13.08c.32,0,.64.05,1,.05a45,45,0,0,0,0-90Zm4.36,71.62a6.77,6.77,0,1,1,1.93-4.73A6.44,6.44,0,0,1,105.81,127.37ZM116.75,93.6q-.76,1.48-1.06,2.12a10.32,10.32,0,0,1-1.4,1.93q-1.1,1.29-1.48,1.67-1.82,1.82-3.45,3.41a11.51,11.51,0,0,0-2.16,2.61,6.89,6.89,0,0,0-.53,3.07v4.54H95.17v-5.68a10.58,10.58,0,0,1,.8-4.66,20.15,20.15,0,0,1,3.37-4.2l5.15-5.3a5.32,5.32,0,0,0,1.14-3.52A5.4,5.4,0,0,0,104.4,86a4,4,0,0,0-3.18-1.44,4,4,0,0,0-3.29,1.7,8.72,8.72,0,0,0-1.63,4.51h-12q.83-7.57,5.53-11.89a16.73,16.73,0,0,1,11.77-4.32q7.08,0,11.51,3.86t4.43,10.68A10.28,10.28,0,0,1,116.75,93.6Z"/></g></g></svg>