<?xml version="1.0" encoding="utf-8"?>
<!-- Generator: Adobe Illustrator 21.1.0, SVG Export Plug-In . SVG Version: 6.00 Build 0)  -->
<svg version="1.1" id="Layer_1" xmlns="http://www.w3.org/2000/svg" xmlns:xlink="http://www.w3.org/1999/xlink" x="0px" y="0px"
	 viewBox="0 0 60 60" style="enable-background:new 0 0 60 60;" xml:space="preserve">
<style type="text/css">
	.st0{fill:#FFFFFF;}
</style>
<title>ig</title>
<g id="Layer_2">
	<g id="Layer_1-2">
		<path class="st0" d="M55.7,30c0,5.1-0.1,8.6-0.2,10.6c-0.2,4.7-1.6,8.3-4.2,10.8c-2.5,2.5-6.1,3.9-10.8,4.2
			c-2,0.1-5.5,0.2-10.6,0.2s-8.6-0.1-10.6-0.2c-4.7-0.2-8.3-1.6-10.8-4.2s-3.9-6.1-4.2-10.8c-0.1-2-0.2-5.5-0.2-10.6
			s0.1-8.7,0.2-10.6c0.2-4.7,1.6-8.3,4.1-10.8s6.1-3.9,10.8-4.2c1.9-0.1,5.5-0.2,10.6-0.2s8.7,0.1,10.6,0.2
			c4.7,0.2,8.3,1.6,10.8,4.1s3.9,6.1,4.1,10.8C55.7,21.3,55.7,24.9,55.7,30z M32.6,8.9H30h-2.6c-1.6,0-2.7,0-3.5,0S22,8.9,20.7,9
			c-1.2,0-2.3,0.1-3.5,0.3c-0.8,0.1-1.6,0.3-2.4,0.6c-2.2,0.9-4,2.7-4.9,4.9c-0.3,0.8-0.5,1.6-0.7,2.4C9.1,18.4,9,19.5,9,20.7
			c-0.1,1.3-0.1,2.4-0.1,3.2c0,0.8,0,2,0,3.5c0,1.6,0,2.4,0,2.6s0,1,0,2.6c0,1.6,0,2.7,0,3.5c0,0.8,0,1.9,0.1,3.2
			c0,1.2,0.1,2.3,0.3,3.5c0.1,0.8,0.3,1.6,0.6,2.4c0.9,2.2,2.7,4,4.9,4.9c0.8,0.3,1.6,0.5,2.4,0.6c1.1,0.2,2.3,0.3,3.4,0.3
			c1.3,0.1,2.4,0.1,3.2,0.1c0.8,0,2,0,3.5,0H30h2.6c1.6,0,2.7,0,3.5,0c0.8,0,1.9,0,3.2-0.1c1.2,0,2.3-0.1,3.5-0.3
			c0.8-0.1,1.6-0.3,2.4-0.6c2.2-0.9,4-2.7,4.9-4.9c0.3-0.8,0.5-1.6,0.6-2.4c0.2-1.2,0.3-2.3,0.4-3.5c0.1-1.3,0.1-2.4,0.1-3.2
			c0-0.8,0-2,0-3.5c0-1.6,0-2.4,0-2.6c0-0.2,0-1,0-2.6c0-1.6,0-2.7,0-3.5c0-0.8,0-1.9-0.1-3.2c0-1.2-0.1-2.3-0.3-3.5
			c-0.1-0.8-0.3-1.6-0.6-2.4c-0.9-2.2-2.7-4-4.9-4.9c-0.8-0.3-1.6-0.5-2.4-0.6C41.6,9.1,40.5,9,39.3,9c-1.3-0.1-2.4-0.1-3.2-0.1
			C35.2,8.9,34.1,8.9,32.6,8.9z M39.3,20.7c2.5,2.4,3.9,5.8,3.8,9.3c0,7.3-5.8,13.2-13.1,13.2c0,0-0.1,0-0.1,0
			c-7.3,0-13.2-5.8-13.2-13.1c0,0,0-0.1,0-0.1c0-7.3,5.8-13.2,13.1-13.2c0,0,0.1,0,0.1,0C33.5,16.7,36.9,18.1,39.3,20.7z M36.1,36.1
			c3.3-3.3,3.3-8.8,0-12.1c0,0,0,0,0,0c-3.3-3.3-8.8-3.3-12.1,0c0,0,0,0,0,0c-1.6,1.6-2.5,3.8-2.5,6.1c0,4.7,3.8,8.6,8.6,8.6
			C32.3,38.6,34.5,37.7,36.1,36.1L36.1,36.1z M45.9,14.1c1.2,1.2,1.2,3.1,0,4.3c0,0,0,0,0,0c-1.2,1.2-3.2,1.2-4.4,0
			c-0.6-0.6-0.9-1.3-0.9-2.1c0-1.7,1.4-3.1,3.1-3.1C44.5,13.2,45.3,13.5,45.9,14.1L45.9,14.1z"/>
	</g>
</g>
</svg>
