<svg xmlns="http://www.w3.org/2000/svg" viewBox="0 0 36.35 50"><defs><style>.cls-1{fill:#fff;}</style></defs><title>kids</title><g id="Layer_2" data-name="Layer 2"><g id="Layer_1-2" data-name="Layer 1"><path class="cls-1" d="M35.34,12.05a3.26,3.26,0,0,0-3.86,0l-1.51,1c-2.38,1.61-4.76,3.23-7.15,4.82a1.06,1.06,0,0,1-.47.14c-1.16,0-2.32,0-3.47,0-1.32,0-2.63,0-3.95,0a1.7,1.7,0,0,1-.92-.35l-.31-.17c-.83-.45-1.56-.9-2.26-1.34a19.16,19.16,0,0,0-6.75-2.94,3.21,3.21,0,0,0-3.59.12,2.66,2.66,0,0,0-.46,3.86,20.25,20.25,0,0,0,4.2,4,17.57,17.57,0,0,1,3.61,3.41c-.07,1.74-.16,3.48-.25,5.21l-.12,2.28c-.09,1.69-.17,3.39-.27,5.08-.12,2.15.08,4.29-.05,6.41l.17,2.73v.55c0,1.53.56,2.7,2,3a3,3,0,0,0,3.41-1.55c.27-.47.44-.94.65-1.4.08-.17.13-.34.21-.51.3-.64.5-1.14.68-1.57a6.91,6.91,0,0,1,1.67-2.63,3.08,3.08,0,0,1,2-.53h.07a4,4,0,0,1,2.69.79,3.56,3.56,0,0,1,.71.95,8.82,8.82,0,0,0,.8,1.38c.39.58.73,1.19,1.09,1.84s.6,1.08.94,1.63a2.94,2.94,0,0,0,3.36,1.32,2.73,2.73,0,0,0,2.11-2.93c-.17-2.49-.33-4.55-.49-6.47-.14-1.64-.29-3.28-.44-4.93q-.14-1.49-.27-3L29,30.71c-.14-1.54-.29-3.12-.38-4.67,0-.2,0-.41-.06-.61-.08-.68-.06-.78.09-1,1.77-2.05,3.5-4.17,5.18-6.22L35.64,16a2.88,2.88,0,0,0,.7-2A2.68,2.68,0,0,0,35.34,12.05ZM18.62,38.93a2,2,0,1,1,2-2A2,2,0,0,1,18.62,38.93Zm0-7.06a2,2,0,1,1,2-2A2,2,0,0,1,18.62,31.87Zm0-7.06a2,2,0,1,1,2-2A2,2,0,0,1,18.62,24.8Zm0-10.88a6.92,6.92,0,0,0,7-6.79,7,7,0,1,0-14-.18A6.92,6.92,0,0,0,18.63,13.92Z"/></g></g></svg>