<svg xmlns="http://www.w3.org/2000/svg" xmlns:xlink="http://www.w3.org/1999/xlink" viewBox="0 0 202.58 202.58"><defs><style>.cls-1{fill:#1e1e1e;}.cls-2{fill:#fff;}.cls-3{fill:url(#linear-gradient);}</style><linearGradient id="linear-gradient" x1="21.01" y1="46.31" x2="122.13" y2="147.44" gradientUnits="userSpaceOnUse"><stop offset="0.05" stop-color="#ff9600"/><stop offset="0.55" stop-color="#ff0032"/><stop offset="1" stop-color="#ff009b"/></linearGradient></defs><title>logo_1</title><g id="Layer_2" data-name="Layer 2"><g id="Layer_1-2" data-name="Layer 1"><path class="cls-1" d="M45.69,1.06H156.89a44.62,44.62,0,0,1,44.62,44.62V156.89a44.63,44.63,0,0,1-44.63,44.63H45.69A44.63,44.63,0,0,1,1.06,156.89V45.69A44.63,44.63,0,0,1,45.69,1.06Z"/><path class="cls-2" d="M156.89,202.58H45.69A45.74,45.74,0,0,1,0,156.89V45.69A45.74,45.74,0,0,1,45.69,0H156.89a45.74,45.74,0,0,1,45.68,45.69V156.89A45.74,45.74,0,0,1,156.89,202.58ZM45.69,2.12A43.62,43.62,0,0,0,2.12,45.69V156.89a43.62,43.62,0,0,0,43.57,43.56H156.89a43.61,43.61,0,0,0,43.56-43.56V45.69A43.62,43.62,0,0,0,156.89,2.12Z"/><polygon class="cls-3" points="44.48 22.84 172.69 96.87 44.48 170.9 44.48 22.84"/><path class="cls-2" d="M19.19,123.82h19l6.37-8.63H63.31v8.63H79V65.74H63.57Zm44.12-20.67h-10l10-13.63Z"/><polygon class="cls-2" points="101.91 65.75 85.71 65.75 85.71 123.82 120.1 123.82 120.1 110.68 101.91 110.68 101.91 65.75"/><polygon class="cls-2" points="113.71 65.75 113.71 78.89 125.94 78.89 125.94 123.82 141.54 123.82 141.54 78.89 153.87 78.89 153.87 65.75 113.71 65.75"/><path class="cls-2" d="M98.92,146.86h3.63c4,0,7.82,1.65,7.82,6.1v.17a5.62,5.62,0,0,1-3.46,5.42c2,.89,3.77,2.3,3.77,5.35v.31c0,4.25-3.29,6.65-8,6.65H98.92Zm4.25,10.08a2.85,2.85,0,0,0,3.09-3.15v-.07c0-2.09-1.24-3-3.09-3h-.07v6.21Zm0,10a3,3,0,0,0,3.29-3.12v-.17a3,3,0,0,0-3.29-3.12h-.1V167Z"/><path class="cls-2" d="M117.33,146.79h4.46l4.56,24.07h-4.18l-.79-4.77h-3.81l-.75,4.77h-4Zm3.43,15.53-1.27-7.92-1.3,7.92Z"/><path class="cls-2" d="M129.33,146.86h4.18v20h4.42v4h-8.61Z"/><path class="cls-2" d="M144.52,146.79H149l4.56,24.07h-4.18l-.79-4.77h-3.8l-.76,4.77h-4Zm3.43,15.53-1.27-7.92-1.3,7.92Z"/><path class="cls-2" d="M155.83,170.73v-4.15a5.79,5.79,0,0,0,2,.41c1.34,0,2.16-.72,2.16-2.47V146.86h4.25v18c0,4.25-2.23,6.24-5.76,6.24A11.26,11.26,0,0,1,155.83,170.73Z"/><path class="cls-2" d="M168.41,146.86h4.18v24h-4.18Z"/></g></g></svg>