<svg xmlns="http://www.w3.org/2000/svg" xmlns:xlink="http://www.w3.org/1999/xlink" viewBox="0 0 453.65 73.87"><defs><style>.cls-1{fill:url(#linear-gradient);}.cls-2{fill:#646464;}.cls-3{fill:none;stroke:#58595b;stroke-miterlimit:10;}.cls-4{fill:#ff0032;}.cls-5{fill:#ffc300;}.cls-6{fill:#ff009b;}.cls-7{fill:#ff8c00;}</style><linearGradient id="linear-gradient" y1="31.92" x2="109.46" y2="31.92" gradientUnits="userSpaceOnUse"><stop offset="0.05" stop-color="#ff9600"/><stop offset="0.55" stop-color="#ff0032"/><stop offset="1" stop-color="#ff009b"/></linearGradient></defs><title>kids_1</title><g id="Layer_2" data-name="Layer 2"><g id="Layer_1-2" data-name="Layer 1"><path class="cls-1" d="M77.49,9.32v9.92h9.92V54.52H99.54V19.24h9.92V9.32ZM0,54.52H14.79l5-6.61H34.48v6.61H46.61V9.32h-12ZM34.48,38H26.61l7.87-10.36Zm32-28.67H53.23V54.52H80.79V44.6H66.46Z"/><path class="cls-2" d="M116.28,9.46h6.78c7.55,0,14.58,3.07,14.58,11.38v.32a10.49,10.49,0,0,1-6.46,10.11c3.77,1.66,7,4.28,7,10v.58c0,7.93-6.14,12.41-14.84,12.41h-7.1Zm7.92,18.81c3.46,0,5.76-2,5.76-5.89v-.13c0-3.9-2.3-5.57-5.76-5.57h-.12V28.27ZM124.27,47c3.59,0,6.14-2.11,6.14-5.82v-.32c0-3.71-2.56-5.82-6.14-5.82h-.19V47Z"/><path class="cls-2" d="M150.62,9.34h8.32l8.5,44.89h-7.8l-1.47-8.88h-7.1l-1.41,8.88h-7.55Zm6.4,29-2.36-14.77-2.43,14.77Z"/><path class="cls-2" d="M173,9.46h7.8V46.82h8.25v7.41H173Z"/><path class="cls-2" d="M201.34,9.34h8.32l8.5,44.89h-7.8l-1.47-8.88h-7.1l-1.41,8.88h-7.55Zm6.4,29-2.37-14.77-2.43,14.77Z"/><path class="cls-2" d="M222.45,54V46.24a10.61,10.61,0,0,0,3.71.77c2.49,0,4-1.34,4-4.6V9.46h7.93V43c0,7.93-4.16,11.64-10.75,11.64A21,21,0,0,1,222.45,54Z"/><path class="cls-2" d="M245.92,9.46h7.8V54.23h-7.8Z"/><line class="cls-3" x1="282.55" x2="282.55" y2="66.89"/><path class="cls-4" d="M341.91,54.37,327.68,41.3l.85,11.88L314,53.9l-4.5-42.82L324.89,10l1,12.81,13.5-14.58,12.13,7.92-14.4,14.18L354.45,42.7Z"/><path class="cls-5" d="M419.08,39.52q-.46,10.05-7,15.17-5.26,4.07-14.14,4.83A58.21,58.21,0,0,1,384,58.86a53.62,53.62,0,0,1-6.25-1.29L379.58,16A60.89,60.89,0,0,1,398.25,15q14.59,1.25,19.16,13a24.49,24.49,0,0,1,1.23,4.29,30.62,30.62,0,0,1,.47,3.67A19.74,19.74,0,0,1,419.08,39.52Zm-14.53-.74a9,9,0,0,0-.05-4,6.05,6.05,0,0,0-1.58-3A6.61,6.61,0,0,0,399,30a15,15,0,0,0-5.48.14l-1.46,14.47a13.4,13.4,0,0,0,5.54.6,7.36,7.36,0,0,0,6.94-6.47Z"/><path class="cls-6" d="M449.83,10.86l-4.57,9.51q-5.12-2.43-7-.33-2.48,2.73,2.77,7.44a54.45,54.45,0,0,0,4.85,3.82l.6.44.54.38,1,.73c.71.52,1.21.92,1.51,1.2a11.67,11.67,0,0,1,4,7.18A11.9,11.9,0,0,1,451.89,49a15.56,15.56,0,0,1-5.61,5.74,17.7,17.7,0,0,1-9.21,2A22.8,22.8,0,0,1,430,55.21a54,54,0,0,1-7-3.1l6.72-9.19a8.11,8.11,0,0,0,4.84,2.22c1.49,0,2.18-.77,2.06-2.41a5.48,5.48,0,0,0-1.33-3,17.74,17.74,0,0,0-3.51-2.93l-1.12-.74-1.12-.76c-.91-.59-1.67-1.13-2.28-1.6q-5.69-4.29-6.4-9.89a12.75,12.75,0,0,1,2.13-9,14.19,14.19,0,0,1,7.31-5.49,24.22,24.22,0,0,1,12.79-.78A27.34,27.34,0,0,1,449.83,10.86Z"/><path class="cls-7" d="M357.51,52,357,8.38,373,8.7l-1.12,43.39Z"/><circle class="cls-7" cx="364.87" cy="65.43" r="8.44"/></g></g></svg>