<svg xmlns="http://www.w3.org/2000/svg" xmlns:xlink="http://www.w3.org/1999/xlink" viewBox="0 0 253.83 45.32"><defs><style>.cls-1{fill:url(#linear-gradient);}.cls-2{fill:#fff;}</style><linearGradient id="linear-gradient" x1="3757" y1="22.61" x2="3866.51" y2="22.61" gradientTransform="translate(-3757)" gradientUnits="userSpaceOnUse"><stop offset="0.05" stop-color="#ff9600"/><stop offset="0.55" stop-color="#ff0032"/><stop offset="1" stop-color="#ff009b"/></linearGradient></defs><title>logo</title><g id="Layer_2" data-name="Layer 2"><g id="Layer_1-2" data-name="Layer 1"><path class="cls-1" d="M77.52,0V9.93h9.93v35.3H99.58V9.93h9.93V0Zm-11,0H53.25V45.23H80.83V35.3H66.49ZM0,45.23H14.79l5-6.62H34.5v6.62H46.63V0h-12ZM34.5,28.68H26.62L34.5,18.32Z"/><path class="cls-2" d="M116.33.15h6.78c7.55,0,14.59,3.07,14.59,11.39v.32A10.48,10.48,0,0,1,131.24,22c3.78,1.66,7,4.29,7,10v.58c0,7.94-6.14,12.41-14.84,12.41h-7.1ZM124.26,19c3.45,0,5.76-2,5.76-5.89v-.13c0-3.9-2.3-5.57-5.76-5.57h-.13V19Zm.06,18.75c3.58,0,6.14-2.11,6.14-5.82v-.32c0-3.71-2.56-5.82-6.14-5.82h-.19v12Z"/><path class="cls-2" d="M150.69,0H159l8.51,44.91h-7.81L158.24,36h-7.1l-1.41,8.89h-7.55Zm6.4,29-2.37-14.78L152.29,29Z"/><path class="cls-2" d="M173.08.15h7.81V37.52h8.25v7.42H173.08Z"/><path class="cls-2" d="M201.43,0h8.32l8.51,44.91h-7.81L209,36h-7.1l-1.41,8.89h-7.55Zm6.4,29-2.37-14.78L203,29Z"/><path class="cls-2" d="M222.54,44.68V36.94a10.71,10.71,0,0,0,3.71.77c2.49,0,4-1.34,4-4.61V.15h7.93V33.68c0,7.93-4.16,11.64-10.75,11.64A20.93,20.93,0,0,1,222.54,44.68Z"/><path class="cls-2" d="M246,.15h7.8V44.94H246Z"/></g></g></svg>