<svg xmlns="http://www.w3.org/2000/svg" viewBox="0 0 201.48 201.48"><defs><style>.cls-1{fill:#ff0032;}.cls-2{fill:#fff;}</style></defs><title>subs</title><g id="Layer_2" data-name="Layer 2"><g id="Layer_1-2" data-name="Layer 1"><circle class="cls-1" cx="100.74" cy="100.74" r="100.74"/><path class="cls-2" d="M138.18,80.48H73.42c-5.4,0-7.2-2.7-7.2-4.5l72-6.75V62.49a4.74,4.74,0,0,0-5.4-4.5L64.88,70.14a9.15,9.15,0,0,0-7.65,9v59.81a9,9,0,0,0,9,9h72a9,9,0,0,0,9-9V89.48A9,9,0,0,0,138.18,80.48ZM131.43,121a6.75,6.75,0,1,1,6.75-6.75A6.92,6.92,0,0,1,131.43,121Z"/></g></g></svg>