<svg xmlns="http://www.w3.org/2000/svg" viewBox="0 0 201.48 201.48"><defs><style>.cls-1{fill:#ff0032;}.cls-2{fill:#fff;}</style></defs><title>trouble</title><g id="Layer_2" data-name="Layer 2"><g id="Layer_1-2" data-name="Layer 1"><circle class="cls-1" cx="100.74" cy="100.74" r="100.74"/><path class="cls-2" d="M72.63,60a26.13,26.13,0,0,1,8.87,3.62,12.06,12.06,0,0,1,5.57,9.19q.35,2.78.7,5.56a4.58,4.58,0,0,0,1.38,2.76c4.7,4.69,9.37,9.41,14.09,14.08.65.64.61,1,0,1.6-1.28,1.2-2.51,2.46-3.72,3.72a1.36,1.36,0,0,1-1.46.44,13.67,13.67,0,0,0-10.63,1.61.86.86,0,0,1-1.27-.14c-2.77-2.81-5.66-5.52-8.33-8.42a7.38,7.38,0,0,0-5.25-2.38,43.7,43.7,0,0,1-5.38-.73c-3.77-.76-6.34-3.06-8.2-6.31a25.43,25.43,0,0,1-3-8.27V73.47c.38-1.29.41-1.29,1.34-.35q2.47,2.48,5,5a7.81,7.81,0,0,0,6.18,2.37,8.36,8.36,0,0,0,5.87-13.9c-1.71-1.91-3.6-3.66-5.41-5.49-.66-.66-.64-.72.21-1.1Z"/><path class="cls-2" d="M59.64,138.49a10.84,10.84,0,0,1,3.31-8.21q11.75-11.83,23.55-23.6a11,11,0,0,1,12.11-2.73,1.31,1.31,0,0,0,1.56-.34q9.71-9.77,19.45-19.51a3.38,3.38,0,0,0,.68-1c1.11-2.42,2.24-4.83,3.34-7.25a2.71,2.71,0,0,1,1-1.17q6.42-4.29,12.81-8.61a1,1,0,0,1,1.55.14c1.32,1.41,2.7,2.76,4.08,4.1a.79.79,0,0,1,.11,1.2q-4.42,6.6-8.8,13.22a2.25,2.25,0,0,1-1,.82c-2.42,1.11-4.83,2.24-7.25,3.35a3.83,3.83,0,0,0-1.14.8q-9.71,9.77-19.43,19.53a1.06,1.06,0,0,0-.33,1.29c1.64,4.65.83,8.85-2.64,12.37q-11.8,12-23.73,23.79a10.74,10.74,0,0,1-11.59,2.62c-4.34-1.44-6.82-4.65-7.64-9.13A9.38,9.38,0,0,1,59.64,138.49ZM91,112.87a1.26,1.26,0,0,0-.79-1.29,1.33,1.33,0,0,0-1.57.42q-6.6,6.6-13.18,13.22a1.5,1.5,0,0,0-.19,2.11,1.51,1.51,0,0,0,2.12-.19q6.59-6.61,13.16-13.24A1.26,1.26,0,0,0,91,112.87Z"/><path class="cls-2" d="M145.51,133.31A16.3,16.3,0,0,1,113.11,136c-.34-2.1-.57-4.22-.86-6.33a3.69,3.69,0,0,0-1.13-2.21c-1.42-1.39-2.78-2.84-4.19-4.24a.89.89,0,0,1-.17-1.29,14.18,14.18,0,0,0,1.57-10.82,1.1,1.1,0,0,1,.33-1.17c1.37-1.36,2.74-2.72,4.08-4.1.43-.45.73-.42,1.15,0,2.66,2.71,5.45,5.3,8,8.13a8.21,8.21,0,0,0,6,2.79c3.89.26,7.66,1,10.9,3.37a16.21,16.21,0,0,1,6.62,11A11.72,11.72,0,0,1,145.51,133.31Zm-16.21-6.84a7,7,0,0,0-7.12,6.83,7.12,7.12,0,0,0,6.66,7.15,6.9,6.9,0,0,0,7.31-6.87A6.82,6.82,0,0,0,129.3,126.47Z"/></g></g></svg>